<svg width="374" height="301" viewBox="0 0 374 301" fill="none" xmlns="http://www.w3.org/2000/svg">
<g clip-path="url(#clip0_2175_365)">
<path fill-rule="evenodd" clip-rule="evenodd" d="M0 300.31H373.44V0.170532H0V300.31Z" fill="white"/>
<path fill-rule="evenodd" clip-rule="evenodd" d="M15.457 139.304V67.7631H26.0734V75.9121C30.0745 70.6573 33.8223 66.4427 38.3569 66.4427C45.0655 66.4427 48.5465 71.5776 48.5465 84.848V139.29H37.57V86.6885C37.57 81.9539 36.5297 78.7929 33.5689 78.7929C31.3016 78.7929 28.7808 82.0872 26.4335 85.2348V139.29H15.457" fill="#00334D"/>
<path fill-rule="evenodd" clip-rule="evenodd" d="M69.0881 117.737C69.0881 123.259 71.7022 126.153 75.53 126.153C79.3577 126.153 81.9718 123.259 81.9718 117.737V89.3293C81.9718 83.8077 79.3577 80.9135 75.53 80.9135C71.7022 80.9135 69.0881 83.8077 69.0881 89.3293V117.737ZM58.125 93.5438C58.125 74.6051 64.5668 66.4561 75.5433 66.4561C86.5198 66.4561 92.9616 74.6051 92.9616 93.5438V113.536C92.9616 132.475 86.5198 140.624 75.5433 140.624C64.5668 140.624 58.125 132.475 58.125 113.536V93.5438Z" fill="#00334D"/>
<path fill-rule="evenodd" clip-rule="evenodd" d="M102.523 139.304V67.7631H113.233V77.2325H113.407C115.927 70.1371 119.235 66.4427 124.73 66.4427V84.3279C122.903 83.541 120.809 82.4873 118.901 82.4873C115.327 82.4873 113.5 86.5685 113.5 90.3829V139.304H102.523Z" fill="#00334D"/>
<path fill-rule="evenodd" clip-rule="evenodd" d="M126.824 84.3278V70.9107H131.172V51.4518H142.149V70.9107H149.204V84.3278H142.149V120.885C142.149 124.433 144.149 126.14 147.11 126.14C147.897 126.14 148.59 126.14 149.284 126.006V139.944C147.19 140.464 145.109 140.597 143.016 140.597C135.88 140.597 131.172 136.649 131.172 126.393V84.3145H126.824" fill="#00334D"/>
<path fill-rule="evenodd" clip-rule="evenodd" d="M155.738 139.304V44.3564H166.715V75.9255C170.369 70.6706 174.117 66.4561 178.638 66.4561C185.347 66.4561 188.828 71.5909 188.828 84.8613V139.304H177.851V86.7019C177.851 81.9672 176.811 78.8063 173.85 78.8063C171.583 78.8063 169.062 82.1006 166.715 85.2481V139.304H155.738Z" fill="#00334D"/>
<path fill-rule="evenodd" clip-rule="evenodd" d="M195.176 67.7631H205.459L211.807 112.469H211.981L218.342 67.7631H227.745L234.454 112.469H234.627L240.629 67.7631H250.912L239.762 139.303H229.492L222.784 94.5841H222.61L216.782 139.303H206.499L195.176 67.7631Z" fill="#00334D"/>
<path fill-rule="evenodd" clip-rule="evenodd" d="M280.346 94.0639V90.1161C280.346 83.8077 278.346 79.8599 273.904 79.8599C269.463 79.8599 267.462 83.8077 267.462 90.1161V94.0639H280.346ZM267.449 107.481V116.95C267.449 124.046 270.237 127.207 273.891 127.207C278.506 127.207 280.333 122.739 280.333 117.217H291.309C290.789 131.941 284.947 140.624 273.891 140.624C263.448 140.624 256.473 130.888 256.473 115.243V91.8366C256.473 76.1922 263.435 66.4561 273.891 66.4561C284.347 66.4561 291.309 76.1922 291.309 90.783V107.481H267.449Z" fill="#00334D"/>
<path fill-rule="evenodd" clip-rule="evenodd" d="M321.785 89.596C320.305 83.0208 317.517 79.8599 314.21 79.8599C311.689 79.8599 309.768 82.6207 309.768 86.3018C309.768 97.3449 331.188 97.6117 331.188 118.911C331.188 133.115 324.573 140.611 315.423 140.611C308.808 140.611 302.886 138.117 297.578 120.231L307.421 116.15C308.381 122.859 311.075 127.193 315.437 127.193C318.744 127.193 320.745 124.819 320.745 120.885C320.745 107.201 299.325 110.495 299.325 86.4351C299.325 72.8846 306.554 66.4427 314.303 66.4427C322.492 66.4427 328.147 73.5381 330.841 84.3279L321.785 89.5827" fill="#00334D"/>
<path fill-rule="evenodd" clip-rule="evenodd" d="M334.855 84.3278V70.9107H339.203V51.4518H350.18V70.9107H357.235V84.3278H350.18V120.885C350.18 124.433 352.18 126.14 355.141 126.14C355.928 126.14 356.622 126.14 357.315 126.006V139.944C355.221 140.464 353.141 140.597 351.047 140.597C343.911 140.597 339.203 136.649 339.203 126.393V84.3145H334.855" fill="#00334D"/>
<path fill-rule="evenodd" clip-rule="evenodd" d="M54.4937 164.257C54.4937 154.201 53.1333 154.201 51.8663 154.201H47.9585V147.946H72.8322V154.201H69.778C68.591 154.201 68.3376 154.201 68.1642 157.335V230.503C68.1642 233.797 68.1642 246.321 70.2048 246.321H74.8728V252.576H49.9991V246.321C53.9068 246.321 54.4937 246.321 54.4937 244.667V199.854H36.3285V230.503C36.3285 233.797 36.3285 246.321 38.3691 246.321H43.2905V252.576H18.15V246.321C22.0577 246.321 22.6446 246.321 22.6446 244.667V164.257C22.6446 154.201 21.2842 154.201 20.0172 154.201H16.1094V147.946H41.2366V154.201H37.9289C36.7419 154.201 36.4885 154.201 36.3151 157.335V192.599H54.4803V164.257" fill="#00334D"/>
<path fill-rule="evenodd" clip-rule="evenodd" d="M93.988 176.287L86.8527 209.243H100.27L93.988 176.287ZM85.4123 216.499C85.1589 218.153 80.8243 238.092 80.8243 243.52C80.8243 246.321 81.8379 246.321 83.0382 246.321H87.7063V252.576H70.5547V246.321H72.8487C74.8893 246.321 75.2227 245.987 75.5695 243.68C77.1032 234.451 95.095 152.227 96.122 148.773C98.6694 147.786 103.844 145.639 104.951 145.639C105.711 145.639 106.138 146.959 106.138 148.439C106.138 151.24 104.191 150.907 104.191 154.041C104.191 158.162 113.62 204.962 118.622 230.663C121.169 243.52 121.596 246.321 124.05 246.321H126.517V252.576H101.724V246.321H105.205C105.711 246.321 106.738 246.321 106.738 244.667C106.738 243.52 103.511 226.208 101.724 216.486H85.4256L85.4123 216.499Z" fill="#00334D"/>
<path fill-rule="evenodd" clip-rule="evenodd" d="M144.507 198.867H146.721C153.176 198.867 156.99 191.612 156.99 178.928C156.99 167.565 152.749 155.201 146.374 155.201C145.267 155.201 144.507 155.201 144.507 157.015V198.867ZM144.507 230.503C144.507 233.797 144.507 246.321 146.547 246.321H151.469V252.576H126.341V246.321C130.249 246.321 130.836 246.321 130.836 244.667V164.257C130.836 154.201 129.476 154.201 128.209 154.201H124.301V147.946H151.642C153.429 147.946 170.661 147.946 170.661 179.582C170.661 184.53 168.367 198.534 159.618 200.174C163.699 214.845 169.127 231.983 174.048 242.2C175.235 244.667 176.169 246.321 178.463 246.321V252.576H165.979C162.672 252.576 161.818 252.576 160.711 250.269C156.977 242.52 151.282 218.793 148.654 205.616H144.493V230.503H144.507Z" fill="#00334D"/>
<path fill-rule="evenodd" clip-rule="evenodd" d="M224.585 154.201H221.011C220.25 154.201 219.904 154.201 219.397 156.668L198.258 251.749C198.004 253.229 197.751 254.71 196.817 254.71C195.884 254.71 195.63 252.736 195.203 251.416L177.038 174.46C173.21 158.309 172.197 154.188 169.996 154.188H167.195V147.933H192.069V154.188H189.602C188.415 154.188 187.561 154.188 187.561 155.348C187.561 156.335 189.002 162.11 189.175 162.924L201.739 216.472C207.007 194.399 214.049 163.417 214.049 156.322C214.049 154.174 213.288 154.174 212.101 154.174H208.114V147.919H224.585V154.174" fill="#00334D"/>
<path fill-rule="evenodd" clip-rule="evenodd" d="M226.879 164.257C226.879 154.201 225.519 154.201 224.252 154.201H220.344V147.946H263.649L262.969 159.816C262.796 162.123 263.049 166.738 261.355 166.738C260.248 166.738 259.822 165.751 259.742 163.777C259.568 160.31 258.888 159.323 257.274 158.176C252.86 155.375 248.699 155.215 242.243 155.215C241.056 155.215 240.55 155.215 240.55 157.856V192.625H245.218C254.727 192.625 255.074 190.158 255.074 185.703V180.262H257.954V209.59H255.074V206.629C255.074 201.681 255.074 199.374 247.938 199.374H240.55V219.967C240.55 242.213 241.056 245.347 242.75 245.347C250.739 245.347 261.262 244.694 263.809 235.131C264.143 233.651 264.41 232.824 265.343 232.824C266.197 232.824 266.61 233.811 266.61 235.291C266.61 237.265 264.996 247.815 264.236 252.589H222.371V246.334C226.279 246.334 226.866 246.334 226.866 244.68V164.271" fill="#00334D"/>
<path fill-rule="evenodd" clip-rule="evenodd" d="M301.512 162.777C301.592 164.257 301.178 165.911 300.151 165.911C298.964 165.911 298.711 164.591 298.458 162.777C297.524 155.028 292.763 152.067 289.122 152.067C284.2 152.067 278.599 157.509 278.599 168.218C278.599 185.517 291.416 181.569 300.845 196.56C303.993 201.668 306.193 211.391 306.193 220.127C306.193 234.957 300.418 255.723 283.613 255.723C278.439 255.723 273.344 254.083 268.502 250.615C267.996 246.161 266.809 236.611 266.809 234.131C266.809 231.823 267.235 230.836 268.422 230.836C269.609 230.836 269.863 232.65 270.21 234.464C272.25 245.334 280.319 248.468 283.12 248.468C289.322 248.468 295.003 241.386 295.003 228.369C295.003 209.417 281.079 211.724 273.344 199.534C269.609 193.599 267.916 186.357 267.916 177.128C267.916 154.721 279.212 144.825 289.308 144.825C293.216 144.825 297.204 145.479 300.938 147.959L301.539 162.79" fill="#00334D"/>
<path fill-rule="evenodd" clip-rule="evenodd" d="M347.791 252.576H317.476V246.321C324.518 246.321 325.118 246.321 325.118 244.667V155.681H323.678C311.274 155.681 309.834 162.443 309.327 164.577C308.727 167.218 308.313 168.699 307.286 168.699C306.526 168.699 305.926 167.872 305.926 166.391C305.926 164.577 307.113 157.829 308.647 147.933H355.26C356.794 157.815 357.981 164.577 357.981 166.391C357.981 167.872 357.38 168.699 356.62 168.699C355.607 168.699 355.18 167.218 354.58 164.577C354.073 162.43 352.632 155.681 340.229 155.681H338.788V230.49C338.788 233.784 338.788 246.307 340.829 246.307H347.791V252.563" fill="#00334D"/>
</g>
<defs>
<clipPath id="clip0_2175_365">
<rect width="373.44" height="300.48" fill="white"/>
</clipPath>
</defs>
</svg>
